# xmcd
#
# Track frame offsets:
#	150
#	16577
#	34270
#	51470
#	69385
#	86868
#	107406
#	124766
#	139616
#	162264
#	179312
#	194407
#	208824
#	227834
#	239961
#	263406
#
# Disc length: 3524 seconds
#
# Revision: 2
# Processed by: cddbd v1.5.2PL0 Copyright (c) Steve Scherf et al.
# Submitted via: audiograbber 1.83.01
#
DISCID=e20dc210
DTITLE=Sound Choice Karaoke - SC8788 Hits Of Dixie Chicks
DYEAR=2002
DGENRE=Karaoke Country
TTITLE0=Dixie Chicks - There's Your Trouble
TTITLE1=Dixie Chicks - Wide Open Spaces
TTITLE2=Dixie Chicks - You Were Mine
TTITLE3=Dixie Chicks - Landslide
TTITLE4=Dixie Chicks - Sin Wagon
TTITLE5=Dixie Chicks - Goodbye Earl
TTITLE6=Dixie Chicks - Long Time Gone
TTITLE7=Dixie Chicks - If I Fall You're Going Down With Me
TTITLE8=Dixie Chicks - Cowboy Take Me Away
TTITLE9=Dixie Chicks - Without You
TTITLE10=Dixie Chicks - Let Him Fly
TTITLE11=Dixie Chicks - Let 'Er Rip
TTITLE12=Dixie Chicks - Ready To Run
TTITLE13=Dixie Chicks - White Trash Wedding
TTITLE14=Dixie Chicks - Some Days You Gotta Dance
TTITLE15=x - Data Trackx
EXTD=
EXTT0=
EXTT1=
EXTT2=
EXTT3=
EXTT4=
EXTT5=
EXTT6=
EXTT7=
EXTT8=
EXTT9=
EXTT10=
EXTT11=
EXTT12=
EXTT13=
EXTT14=
EXTT15=
PLAYORDER=
